<?xml version="1.0" encoding="UTF-8"?><svg id="a" xmlns="http://www.w3.org/2000/svg" viewBox="0 0 33 33"><defs><style>.b,.c{fill:#565656;}.c{stroke-width:.5px;}.c,.d{stroke:#565656;stroke-miterlimit:10;}.d{fill:#fff;}</style></defs><circle class="b" cx="16.5" cy="16.5" r="16.5"/><polygon class="d" points="9.4 23.1 23.5 23.1 23.5 15 16.5 8 9.4 15 9.4 23.1"/><path class="c" d="M19.2,15.8c-.4-.7-1.4-.9-2.1-.5-.3,.2-.5,.4-.6,.7,0,.1-.1,.1-.2,.1,0,0-.1,0-.1-.1-.3-.8-1.2-1.1-2-.8-.8,.3-1.1,1.2-.8,2,.1,.2,.2,.3,.3,.5l2.4,2.4c.1,.1,.2,.1,.2,0l2.4-2.4c.8-.5,.9-1.3,.5-1.9Z"/></svg>