<?xml version="1.0" encoding="UTF-8"?><svg id="a" xmlns="http://www.w3.org/2000/svg" viewBox="0 0 33 33"><defs><style>.b{fill:#565656;}.c{fill:#f9f9f9;stroke:#565656;stroke-miterlimit:10;stroke-width:.7px;}</style></defs><circle class="b" cx="16.5" cy="16.5" r="16.5"/><path class="c" d="M21.8,8.6l-2.5,4.1-5.9-.6-2.2-3.5c0-1.9,2.4-3.5,5.3-3.5s5.3,1.6,5.3,3.5Z"/><circle class="c" cx="16.5" cy="13.2" r="4.1"/><polygon class="b" points="17.1 7 17.1 7.5 16.6 7.5 16.6 8 16.1 8 16.1 7.5 15.6 7.5 15.6 7 16.1 7 16.1 6.5 16.6 6.5 16.6 7 17.1 7"/><path class="c" d="M23.6,20.8v4.8H9.4v-4.8c0-1.5,1.2-2.7,2.7-2.7h1.1c.5,0,1,.2,1.4,.5l1.9,2,1.9-2c.4-.3,.9-.5,1.4-.5h1.1c1.5,0,2.7,1.2,2.7,2.7Z"/></svg>