<?xml version="1.0" encoding="UTF-8"?><svg id="a" xmlns="http://www.w3.org/2000/svg" viewBox="0 0 33 33"><defs><style>.b{fill:#fff;}.c,.d,.e{fill:#565656;}.f{fill:none;stroke-linecap:round;}.f,.d{stroke-width:.5px;}.f,.d,.e{stroke:#fff;stroke-miterlimit:10;}.e{stroke-width:.7px;}</style></defs><circle class="c" cx="16.5" cy="16.5" r="16.5"/><path class="e" d="M21.9,25.3H11.1c-.7,0-1.3-.6-1.3-1.3V8c0-.7,.6-1.3,1.3-1.3h10.7c.7,0,1.3,.6,1.3,1.3V24c.1,.7-.5,1.3-1.2,1.3Z"/><path class="d" d="M20.9,17.3v5.3c0,.3-.2,.5-.5,.5h-7.8c-.3,0-.5-.2-.5-.5v-5.3h8.8Z"/><path class="b" d="M18.1,27.3h-3c-.3,0-.5-.2-.5-.5v-1.5c0-.3,.2-.5,.5-.5h3c.3,0,.5,.2,.5,.5v1.5c-.1,.3-.3,.5-.5,.5Z"/><line class="f" x1="16.5" y1="26.6" x2="16.5" y2="33.3"/><line class="f" x1="9.7" y1="11.5" x2="12.8" y2="11.5"/><line class="f" x1="9.7" y1="13.3" x2="12.8" y2="13.3"/></svg>