<?xml version="1.0" encoding="UTF-8"?><svg id="a" xmlns="http://www.w3.org/2000/svg" viewBox="0 0 33 33"><defs><style>.b,.c,.d{fill:#565656;}.c,.e{stroke-width:.5px;}.c,.e,.d{stroke-miterlimit:10;}.c,.d{stroke:#fff;}.e{fill:#f9f9f9;stroke:#565656;}.d{stroke-width:.7px;}</style></defs><circle class="b" cx="16.5" cy="16.5" r="16.5"/><path class="d" d="M16.5,27.2h0c-3.9,0-7.1-3.2-7.1-7.1V11.5c0-3.9,3.2-7.1,7.1-7.1h0c3.9,0,7.1,3.2,7.1,7.1v8.6c.1,3.9-3.1,7.1-7.1,7.1Z"/><circle class="c" cx="16.5" cy="11.5" r="5"/><path class="c" d="M16.5,6.5v.2c0,2.7-2.2,5-5,5"/><circle class="e" cx="16.5" cy="16.5" r="1.4"/><polygon class="c" points="27.2 20 27.2 22.4 24.9 22.4 24.9 24.8 22.5 24.8 22.5 22.4 20.2 22.4 20.2 20 22.5 20 22.5 17.7 24.9 17.7 24.9 20 27.2 20"/></svg>